<svg width="26" height="27" viewBox="0 0 26 27" fill="none" xmlns="http://www.w3.org/2000/svg">
<path d="M23.8488 2.25H2.60207C2.32032 2.25 2.05011 2.36853 1.85088 2.5795C1.65166 2.79048 1.53973 3.07663 1.53973 3.375V12.375C1.53973 12.6734 1.65166 12.9595 1.85088 13.1705C2.05011 13.3815 2.32032 13.5 2.60207 13.5H5.78907V23.625C5.78907 23.9234 5.90099 24.2095 6.10022 24.4205C6.29945 24.6315 6.56966 24.75 6.8514 24.75H19.5994C19.8812 24.75 20.1514 24.6315 20.3506 24.4205C20.5498 24.2095 20.6617 23.9234 20.6617 23.625V13.5H23.8488C24.1305 13.5 24.4007 13.3815 24.5999 13.1705C24.7992 12.9595 24.9111 12.6734 24.9111 12.375V3.375C24.9111 3.07663 24.7992 2.79048 24.5999 2.5795C24.4007 2.36853 24.1305 2.25 23.8488 2.25ZM7.91374 22.5V20.25C8.47724 20.25 9.01765 20.4871 9.41611 20.909C9.81456 21.331 10.0384 21.9033 10.0384 22.5H7.91374ZM18.5371 22.5H16.4124C16.4124 21.9033 16.6363 21.331 17.0347 20.909C17.4332 20.4871 17.9736 20.25 18.5371 20.25V22.5ZM18.5371 18C17.4101 18 16.3293 18.4741 15.5323 19.318C14.7354 20.1619 14.2877 21.3065 14.2877 22.5H12.1631C12.1631 21.3065 11.7154 20.1619 10.9185 19.318C10.1216 18.4741 9.04073 18 7.91374 18V9H18.5371V18ZM22.7864 11.25H20.6617V7.875C20.6617 7.57663 20.5498 7.29048 20.3506 7.0795C20.1514 6.86853 19.8812 6.75 19.5994 6.75H6.8514C6.56966 6.75 6.29945 6.86853 6.10022 7.0795C5.90099 7.29048 5.78907 7.57663 5.78907 7.875V11.25H3.6644V4.5H22.7864V11.25ZM13.2254 16.875C13.8557 16.875 14.4719 16.6771 14.996 16.3062C15.5201 15.9354 15.9286 15.4083 16.1698 14.7916C16.411 14.1749 16.4741 13.4963 16.3512 12.8416C16.2282 12.1869 15.9247 11.5855 15.479 11.1135C15.0333 10.6415 14.4654 10.3201 13.8472 10.1898C13.2289 10.0596 12.5881 10.1265 12.0058 10.3819C11.4234 10.6374 10.9257 11.0699 10.5755 11.625C10.2253 12.18 10.0384 12.8325 10.0384 13.5C10.0384 14.3951 10.3742 15.2536 10.9719 15.8865C11.5695 16.5194 12.3802 16.875 13.2254 16.875ZM13.2254 12.375C13.4355 12.375 13.6409 12.441 13.8156 12.5646C13.9903 12.6882 14.1265 12.8639 14.2069 13.0695C14.2873 13.275 14.3083 13.5012 14.2673 13.7195C14.2263 13.9377 14.1252 14.1382 13.9766 14.2955C13.828 14.4528 13.6387 14.56 13.4327 14.6034C13.2266 14.6468 13.013 14.6245 12.8189 14.5394C12.6248 14.4542 12.4588 14.31 12.3421 14.125C12.2254 13.94 12.1631 13.7225 12.1631 13.5C12.1631 13.2016 12.275 12.9155 12.4742 12.7045C12.6735 12.4935 12.9437 12.375 13.2254 12.375Z" fill="white"/>
</svg>
