<svg width="27" height="27" viewBox="0 0 27 27" fill="none" xmlns="http://www.w3.org/2000/svg">
<path d="M21.375 4.5H5.625C4.72989 4.5 3.87145 4.85558 3.23851 5.48851C2.60558 6.12145 2.25 6.97989 2.25 7.875V19.125C2.25 20.0201 2.60558 20.8786 3.23851 21.5115C3.87145 22.1444 4.72989 22.5 5.625 22.5H21.375C22.2701 22.5 23.1286 22.1444 23.7615 21.5115C24.3944 20.8786 24.75 20.0201 24.75 19.125V7.875C24.75 6.97989 24.3944 6.12145 23.7615 5.48851C23.1286 4.85558 22.2701 4.5 21.375 4.5V4.5ZM5.625 6.75H21.375C21.6734 6.75 21.9595 6.86853 22.1705 7.07951C22.3815 7.29048 22.5 7.57663 22.5 7.875L13.5 13.365L4.5 7.875C4.5 7.57663 4.61853 7.29048 4.82951 7.07951C5.04048 6.86853 5.32663 6.75 5.625 6.75V6.75ZM22.5 19.125C22.5 19.4234 22.3815 19.7095 22.1705 19.9205C21.9595 20.1315 21.6734 20.25 21.375 20.25H5.625C5.32663 20.25 5.04048 20.1315 4.82951 19.9205C4.61853 19.7095 4.5 19.4234 4.5 19.125V10.44L12.915 15.5813C13.086 15.68 13.28 15.732 13.4775 15.732C13.675 15.732 13.869 15.68 14.04 15.5813L22.5 10.44V19.125Z" fill="white"/>
</svg>
