<svg width="32" height="32" viewBox="0 0 32 32" fill="none" xmlns="http://www.w3.org/2000/svg">
<path d="M19 21H13C12.2044 21 11.4413 21.3161 10.8787 21.8787C10.3161 22.4413 10 23.2044 10 24V26H12V24C12 23.7348 12.1054 23.4804 12.2929 23.2929C12.4804 23.1054 12.7348 23 13 23H19C19.2652 23 19.5196 23.1054 19.7071 23.2929C19.8946 23.4804 20 23.7348 20 24V26H22V24C22 23.2044 21.6839 22.4413 21.1213 21.8787C20.5587 21.3161 19.7956 21 19 21Z" fill="#945BF2"/>
<path d="M16 20C16.7911 20 17.5645 19.7654 18.2223 19.3259C18.8801 18.8864 19.3928 18.2616 19.6955 17.5307C19.9983 16.7998 20.0775 15.9956 19.9231 15.2196C19.7688 14.4437 19.3878 13.731 18.8284 13.1716C18.269 12.6122 17.5563 12.2312 16.7804 12.0769C16.0044 11.9225 15.2002 12.0017 14.4693 12.3045C13.7384 12.6072 13.1136 13.1199 12.6741 13.7777C12.2346 14.4355 12 15.2089 12 16C12 17.0609 12.4214 18.0783 13.1716 18.8284C13.9217 19.5786 14.9391 20 16 20ZM16 14C16.3956 14 16.7822 14.1173 17.1111 14.3371C17.44 14.5568 17.6964 14.8692 17.8478 15.2346C17.9991 15.6001 18.0387 16.0022 17.9616 16.3902C17.8844 16.7781 17.6939 17.1345 17.4142 17.4142C17.1345 17.6939 16.7781 17.8844 16.3902 17.9616C16.0022 18.0387 15.6001 17.9991 15.2346 17.8478C14.8692 17.6964 14.5568 17.44 14.3371 17.1111C14.1173 16.7822 14 16.3956 14 16C14 15.4696 14.2107 14.9609 14.5858 14.5858C14.9609 14.2107 15.4696 14 16 14V14Z" fill="#945BF2"/>
<path d="M25 5H22V4C22 3.46957 21.7893 2.96086 21.4142 2.58579C21.0391 2.21071 20.5304 2 20 2H12C11.4696 2 10.9609 2.21071 10.5858 2.58579C10.2107 2.96086 10 3.46957 10 4V5H7C6.46957 5 5.96086 5.21071 5.58579 5.58579C5.21071 5.96086 5 6.46957 5 7V28C5 28.5304 5.21071 29.0391 5.58579 29.4142C5.96086 29.7893 6.46957 30 7 30H25C25.5304 30 26.0391 29.7893 26.4142 29.4142C26.7893 29.0391 27 28.5304 27 28V7C27 6.46957 26.7893 5.96086 26.4142 5.58579C26.0391 5.21071 25.5304 5 25 5V5ZM12 4H20V8H12V4ZM25 28H7V7H10V10H22V7H25V28Z" fill="#945BF2"/>
</svg>
