<svg width="29" height="30" viewBox="0 0 29 30" fill="none" xmlns="http://www.w3.org/2000/svg">
<g clip-path="url(#clip0_1352_266)">
<path d="M6.07899 21.899C2.7269 17.5095 3.77633 10.7046 8.41792 6.72943C10.591 4.86834 13.2781 3.88551 15.9125 3.95709C15.9125 3.95709 16.2435 3.33453 16.6512 2.56559C17.0593 1.79728 17.762 1.7983 18.2216 2.56798L20.9109 7.07785C21.3704 7.84773 20.9952 8.55545 20.0729 8.65844L14.6699 9.26099C13.7474 9.36347 13.2833 8.91294 13.6333 8.25376L14.2666 7.06044C12.7912 7.27596 11.3472 7.92674 10.129 8.97005C6.79339 11.8267 6.03998 16.7159 8.44841 19.8697C10.8572 23.0239 15.5299 23.2663 18.8652 20.4099C19.9159 19.5101 20.7532 18.3659 21.2856 17.1008C21.6198 16.3073 22.486 15.8747 23.2207 16.1345C23.9559 16.3942 24.2802 17.2476 23.9458 18.0416C23.2035 19.8046 22.0385 21.3985 20.5764 22.6506C15.9348 26.6258 9.4312 26.2886 6.07899 21.899Z" fill="white"/>
<ellipse rx="3.3388" ry="3.57143" transform="matrix(0.606928 0.794757 -0.759528 0.650474 14.2171 14.93)" fill="white"/>
</g>
<defs>
<clipPath id="clip0_1352_266">
<rect width="20.0328" height="21.4286" fill="white" transform="matrix(0.606928 0.794757 -0.759528 0.650474 16.2756 0)"/>
</clipPath>
</defs>
</svg>
