<svg width="28" height="31" viewBox="0 0 28 31" fill="none" xmlns="http://www.w3.org/2000/svg">
<g filter="url(#filter0_d_1125_370)">
<path d="M17.7085 12.7099C18.6889 11.9385 19.4045 10.8808 19.7558 9.68382C20.107 8.48684 20.0765 7.21015 19.6683 6.03135C19.2602 4.85255 18.4948 3.83027 17.4786 3.10674C16.4624 2.3832 15.246 1.99438 13.9985 1.99438C12.7511 1.99438 11.5346 2.3832 10.5185 3.10674C9.50228 3.83027 8.73688 4.85255 8.32874 6.03135C7.92061 7.21015 7.89004 8.48684 8.24129 9.68382C8.59254 10.8808 9.30814 11.9385 10.2885 12.7099C8.60861 13.3829 7.14282 14.4992 6.04742 15.9398C4.95203 17.3804 4.26809 19.0912 4.06853 20.8899C4.05409 21.0212 4.06565 21.1541 4.10256 21.2809C4.13947 21.4078 4.201 21.5261 4.28364 21.6292C4.45055 21.8374 4.69332 21.9707 4.95853 21.9999C5.22375 22.0291 5.48969 21.9517 5.69786 21.7848C5.90602 21.6179 6.03936 21.3751 6.06853 21.1099C6.28812 19.1551 7.22022 17.3497 8.68675 16.0387C10.1533 14.7277 12.0514 14.0029 14.0185 14.0029C15.9856 14.0029 17.8838 14.7277 19.3503 16.0387C20.8168 17.3497 21.7489 19.1551 21.9685 21.1099C21.9957 21.3556 22.113 21.5825 22.2976 21.7469C22.4823 21.9113 22.7213 22.0014 22.9685 21.9999H23.0785C23.3407 21.9697 23.5803 21.8372 23.7451 21.6311C23.9099 21.4251 23.9866 21.1622 23.9585 20.8999C23.758 19.0961 23.0704 17.3809 21.9694 15.9381C20.8684 14.4953 19.3954 13.3794 17.7085 12.7099ZM13.9985 11.9999C13.2074 11.9999 12.434 11.7653 11.7763 11.3258C11.1185 10.8862 10.6058 10.2615 10.303 9.53061C10.0003 8.79971 9.92105 7.99544 10.0754 7.21952C10.2297 6.4436 10.6107 5.73086 11.1701 5.17145C11.7295 4.61204 12.4422 4.23108 13.2182 4.07674C13.9941 3.9224 14.7984 4.00161 15.5293 4.30436C16.2602 4.60711 16.8849 5.1198 17.3244 5.7776C17.7639 6.4354 17.9985 7.20876 17.9985 7.99988C17.9985 9.06075 17.5771 10.0782 16.827 10.8283C16.0768 11.5785 15.0594 11.9999 13.9985 11.9999Z" fill="white"/>
</g>
<defs>
<filter id="filter0_d_1125_370" x="-2" y="0" width="32" height="32" filterUnits="userSpaceOnUse" color-interpolation-filters="sRGB">
<feFlood flood-opacity="0" result="BackgroundImageFix"/>
<feColorMatrix in="SourceAlpha" type="matrix" values="0 0 0 0 0 0 0 0 0 0 0 0 0 0 0 0 0 0 127 0" result="hardAlpha"/>
<feOffset dy="4"/>
<feGaussianBlur stdDeviation="2"/>
<feComposite in2="hardAlpha" operator="out"/>
<feColorMatrix type="matrix" values="0 0 0 0 0 0 0 0 0 0 0 0 0 0 0 0 0 0 0.25 0"/>
<feBlend mode="normal" in2="BackgroundImageFix" result="effect1_dropShadow_1125_370"/>
<feBlend mode="normal" in="SourceGraphic" in2="effect1_dropShadow_1125_370" result="shape"/>
</filter>
</defs>
</svg>
