<svg width="24" height="24" viewBox="0 0 24 24" fill="none" xmlns="http://www.w3.org/2000/svg">
<path d="M15.7085 12.7099C16.6889 11.9385 17.4045 10.8808 17.7558 9.68382C18.107 8.48684 18.0765 7.21015 17.6683 6.03135C17.2602 4.85255 16.4948 3.83027 15.4786 3.10674C14.4624 2.3832 13.246 1.99438 11.9985 1.99438C10.7511 1.99438 9.53465 2.3832 8.51846 3.10674C7.50228 3.83027 6.73688 4.85255 6.32874 6.03135C5.92061 7.21015 5.89004 8.48684 6.24129 9.68382C6.59254 10.8808 7.30814 11.9385 8.28853 12.7099C6.60861 13.3829 5.14282 14.4992 4.04742 15.9398C2.95203 17.3804 2.26809 19.0912 2.06853 20.8899C2.05409 21.0212 2.06565 21.1541 2.10256 21.2809C2.13947 21.4078 2.201 21.5261 2.28364 21.6292C2.45055 21.8374 2.69332 21.9707 2.95853 21.9999C3.22375 22.0291 3.48969 21.9517 3.69786 21.7848C3.90602 21.6179 4.03936 21.3751 4.06853 21.1099C4.28812 19.1551 5.22022 17.3497 6.68675 16.0387C8.15328 14.7277 10.0514 14.0029 12.0185 14.0029C13.9856 14.0029 15.8838 14.7277 17.3503 16.0387C18.8168 17.3497 19.7489 19.1551 19.9685 21.1099C19.9957 21.3556 20.113 21.5825 20.2976 21.7469C20.4823 21.9113 20.7213 22.0014 20.9685 21.9999H21.0785C21.3407 21.9697 21.5803 21.8372 21.7451 21.6311C21.9099 21.4251 21.9866 21.1622 21.9585 20.8999C21.758 19.0961 21.0704 17.3809 19.9694 15.9381C18.8684 14.4953 17.3954 13.3794 15.7085 12.7099ZM11.9985 11.9999C11.2074 11.9999 10.434 11.7653 9.77625 11.3258C9.11845 10.8862 8.60576 10.2615 8.30301 9.53061C8.00026 8.79971 7.92105 7.99544 8.07539 7.21952C8.22973 6.4436 8.61069 5.73086 9.1701 5.17145C9.72951 4.61204 10.4422 4.23108 11.2182 4.07674C11.9941 3.9224 12.7984 4.00161 13.5293 4.30436C14.2602 4.60711 14.8849 5.1198 15.3244 5.7776C15.7639 6.4354 15.9985 7.20876 15.9985 7.99988C15.9985 9.06075 15.5771 10.0782 14.827 10.8283C14.0768 11.5785 13.0594 11.9999 11.9985 11.9999Z" fill="#945BF2"/>
</svg>
