<svg width="296" height="61" viewBox="0 0 296 61" fill="none" xmlns="http://www.w3.org/2000/svg">
<g filter="url(#filter0_d_378_157)">
<path d="M27.766 52.448C23.542 52.448 19.6593 51.4667 16.118 49.504C12.6193 47.5413 9.82467 44.8107 7.734 41.312C5.686 37.7707 4.662 33.8027 4.662 29.408C4.662 25.0133 5.686 21.0667 7.734 17.568C9.82467 14.0693 12.6193 11.3387 16.118 9.376C19.6593 7.41333 23.542 6.432 27.766 6.432C31.99 6.432 35.8513 7.41333 39.35 9.376C42.8913 11.3387 45.6647 14.0693 47.67 17.568C49.718 21.0667 50.742 25.0133 50.742 29.408C50.742 33.8027 49.718 37.7707 47.67 41.312C45.622 44.8107 42.8487 47.5413 39.35 49.504C35.8513 51.4667 31.99 52.448 27.766 52.448ZM27.766 42.464C31.35 42.464 34.2087 41.2693 36.342 38.88C38.518 36.4907 39.606 33.3333 39.606 29.408C39.606 25.44 38.518 22.2827 36.342 19.936C34.2087 17.5467 31.35 16.352 27.766 16.352C24.1393 16.352 21.238 17.5253 19.062 19.872C16.9287 22.2187 15.862 25.3973 15.862 29.408C15.862 33.376 16.9287 36.5547 19.062 38.944C21.238 41.2907 24.1393 42.464 27.766 42.464ZM78.2905 15.904C82.4718 15.904 85.7998 17.2693 88.2745 20C90.7918 22.688 92.0505 26.4 92.0505 31.136V52H81.1705V32.608C81.1705 30.2187 80.5518 28.3627 79.3145 27.04C78.0772 25.7173 76.4132 25.056 74.3225 25.056C72.2318 25.056 70.5678 25.7173 69.3305 27.04C68.0932 28.3627 67.4745 30.2187 67.4745 32.608V52H56.5305V16.288H67.4745V21.024C68.5838 19.4453 70.0772 18.208 71.9545 17.312C73.8318 16.3733 75.9438 15.904 78.2905 15.904ZM127.516 7.072V37.664C127.516 42.4 126.172 46.048 123.484 48.608C120.838 51.168 117.254 52.448 112.732 52.448C107.996 52.448 104.198 51.104 101.34 48.416C98.4808 45.728 97.0515 41.9093 97.0515 36.96H107.932C107.932 38.8373 108.316 40.2667 109.084 41.248C109.852 42.1867 110.961 42.656 112.412 42.656C113.734 42.656 114.758 42.2293 115.484 41.376C116.209 40.5227 116.572 39.2853 116.572 37.664V7.072H127.516ZM152.312 52.512C148.813 52.512 145.656 51.7653 142.84 50.272C140.066 48.7787 137.869 46.6453 136.248 43.872C134.669 41.0987 133.88 37.856 133.88 34.144C133.88 30.4747 134.69 27.2533 136.312 24.48C137.933 21.664 140.152 19.5093 142.968 18.016C145.784 16.5227 148.941 15.776 152.44 15.776C155.938 15.776 159.096 16.5227 161.912 18.016C164.728 19.5093 166.946 21.664 168.568 24.48C170.189 27.2533 171 30.4747 171 34.144C171 37.8133 170.168 41.056 168.504 43.872C166.882 46.6453 164.642 48.7787 161.784 50.272C158.968 51.7653 155.81 52.512 152.312 52.512ZM152.312 43.04C154.402 43.04 156.173 42.272 157.624 40.736C159.117 39.2 159.864 37.0027 159.864 34.144C159.864 31.2853 159.138 29.088 157.688 27.552C156.28 26.016 154.53 25.248 152.44 25.248C150.306 25.248 148.536 26.016 147.128 27.552C145.72 29.0453 145.016 31.2427 145.016 34.144C145.016 37.0027 145.698 39.2 147.064 40.736C148.472 42.272 150.221 43.04 152.312 43.04ZM187.45 21.344C188.474 19.68 189.946 18.336 191.866 17.312C193.786 16.288 195.983 15.776 198.458 15.776C201.402 15.776 204.068 16.5227 206.458 18.016C208.847 19.5093 210.724 21.6427 212.09 24.416C213.498 27.1893 214.202 30.4107 214.202 34.08C214.202 37.7493 213.498 40.992 212.09 43.808C210.724 46.5813 208.847 48.736 206.458 50.272C204.068 51.7653 201.402 52.512 198.458 52.512C195.94 52.512 193.743 52.0213 191.866 51.04C189.988 50.016 188.516 48.672 187.45 47.008V52H176.506V4.64H187.45V21.344ZM203.066 34.08C203.066 31.3493 202.298 29.216 200.762 27.68C199.268 26.1013 197.412 25.312 195.194 25.312C193.018 25.312 191.162 26.1013 189.626 27.68C188.132 29.2587 187.386 31.4133 187.386 34.144C187.386 36.8747 188.132 39.0293 189.626 40.608C191.162 42.1867 193.018 42.976 195.194 42.976C197.37 42.976 199.226 42.1867 200.762 40.608C202.298 38.9867 203.066 36.8107 203.066 34.08ZM224.763 52.512C222.843 52.512 221.264 51.9573 220.027 50.848C218.832 49.696 218.235 48.288 218.235 46.624C218.235 44.9173 218.832 43.488 220.027 42.336C221.264 41.184 222.843 40.608 224.763 40.608C226.64 40.608 228.176 41.184 229.371 42.336C230.608 43.488 231.227 44.9173 231.227 46.624C231.227 48.288 230.608 49.696 229.371 50.848C228.176 51.9573 226.64 52.512 224.763 52.512ZM242.91 12.576C240.99 12.576 239.411 12.0213 238.174 10.912C236.979 9.76 236.382 8.352 236.382 6.688C236.382 4.98133 236.979 3.57333 238.174 2.464C239.411 1.312 240.99 0.735996 242.91 0.735996C244.787 0.735996 246.323 1.312 247.518 2.464C248.755 3.57333 249.374 4.98133 249.374 6.688C249.374 8.352 248.755 9.76 247.518 10.912C246.323 12.0213 244.787 12.576 242.91 12.576ZM248.35 16.288V52H237.406V16.288H248.35ZM253.804 34.08C253.804 30.4107 254.487 27.1893 255.852 24.416C257.26 21.6427 259.159 19.5093 261.548 18.016C263.938 16.5227 266.604 15.776 269.548 15.776C271.895 15.776 274.028 16.2667 275.948 17.248C277.911 18.2293 279.447 19.552 280.556 21.216V4.64H291.5V52H280.556V46.88C279.532 48.5867 278.06 49.952 276.14 50.976C274.263 52 272.066 52.512 269.548 52.512C266.604 52.512 263.938 51.7653 261.548 50.272C259.159 48.736 257.26 46.5813 255.852 43.808C254.487 40.992 253.804 37.7493 253.804 34.08ZM280.556 34.144C280.556 31.4133 279.788 29.2587 278.252 27.68C276.759 26.1013 274.924 25.312 272.748 25.312C270.572 25.312 268.716 26.1013 267.18 27.68C265.687 29.216 264.94 31.3493 264.94 34.08C264.94 36.8107 265.687 38.9867 267.18 40.608C268.716 42.1867 270.572 42.976 272.748 42.976C274.924 42.976 276.759 42.1867 278.252 40.608C279.788 39.0293 280.556 36.8747 280.556 34.144Z" fill="white"/>
<path d="M16.118 49.504L15.6287 50.3762L15.6333 50.3787L16.118 49.504ZM7.734 41.312L6.86834 41.8126L6.87192 41.8188L6.87559 41.825L7.734 41.312ZM7.734 17.568L6.87555 17.055L6.87099 17.0628L7.734 17.568ZM16.118 9.376L15.6332 8.50133L15.6288 8.50386L16.118 9.376ZM39.35 9.376L38.8607 10.2482L38.8653 10.2507L39.35 9.376ZM47.67 17.568L46.8024 18.0653L46.807 18.0732L47.67 17.568ZM47.67 41.312L48.533 41.8172L48.5357 41.8126L47.67 41.312ZM39.35 49.504L39.8393 50.3761L39.35 49.504ZM36.342 38.88L35.6026 38.2066L35.5961 38.214L36.342 38.88ZM36.342 19.936L35.5961 20.602L35.6023 20.609L35.6087 20.6159L36.342 19.936ZM19.062 19.872L18.3287 19.192L18.3221 19.1993L19.062 19.872ZM19.062 38.944L18.3161 39.61L18.3223 39.617L18.3287 39.6239L19.062 38.944ZM27.766 51.448C23.704 51.448 19.9892 50.5062 16.6028 48.6293L15.6333 50.3787C19.3295 52.4271 23.38 53.448 27.766 53.448V51.448ZM16.6073 48.6319C13.2634 46.7561 10.595 44.1503 8.59242 40.799L6.87559 41.825C9.05433 45.471 11.9752 48.3266 15.6288 50.3761L16.6073 48.6319ZM8.59967 40.8114C6.64619 37.4335 5.662 33.6404 5.662 29.408H3.662C3.662 33.965 4.72582 38.1078 6.86834 41.8126L8.59967 40.8114ZM5.662 29.408C5.662 25.1755 6.6462 21.4058 8.59702 18.0732L6.87099 17.0628C4.72581 20.7275 3.662 24.8512 3.662 29.408H5.662ZM8.59242 18.081C10.595 14.7297 13.2634 12.1239 16.6073 10.2481L15.6288 8.50386C11.9752 10.5534 9.05433 13.409 6.87559 17.055L8.59242 18.081ZM16.6028 10.2507C19.9892 8.37382 23.704 7.432 27.766 7.432V5.432C23.38 5.432 19.3295 6.45285 15.6333 8.50134L16.6028 10.2507ZM27.766 7.432C31.8281 7.432 35.5195 8.37379 38.8608 10.2481L39.8393 8.50386C36.1832 6.45287 32.1519 5.432 27.766 5.432V7.432ZM38.8653 10.2507C42.2476 12.1252 44.8882 14.7257 46.8024 18.0653L48.5376 17.0707C46.4411 13.413 43.5351 10.5521 39.8348 8.50134L38.8653 10.2507ZM46.807 18.0732C48.7578 21.4058 49.742 25.1755 49.742 29.408H51.742C51.742 24.8512 50.6782 20.7275 48.533 17.0628L46.807 18.0732ZM49.742 29.408C49.742 33.6404 48.7578 37.4335 46.8043 40.8114L48.5357 41.8126C50.6782 38.1078 51.742 33.965 51.742 29.408H49.742ZM46.807 40.8068C44.8478 44.1538 42.2027 46.7571 38.8608 48.6319L39.8393 50.3761C43.4946 48.3256 46.3962 45.4675 48.533 41.8172L46.807 40.8068ZM38.8608 48.6319C35.5195 50.5062 31.8281 51.448 27.766 51.448V53.448C32.1519 53.448 36.1832 52.4271 39.8393 50.3761L38.8608 48.6319ZM27.766 43.464C31.5971 43.464 34.7411 42.1744 37.0879 39.546L35.5961 38.214C33.6762 40.3642 31.1029 41.464 27.766 41.464V43.464ZM37.0813 39.5533C39.4594 36.9421 40.606 33.5262 40.606 29.408H38.606C38.606 33.1405 37.5766 36.0392 35.6027 38.2067L37.0813 39.5533ZM40.606 29.408C40.606 25.2512 39.4614 21.8294 37.0753 19.2561L35.6087 20.6159C37.5746 22.736 38.606 25.6288 38.606 29.408H40.606ZM37.0879 19.27C34.7411 16.6416 31.5971 15.352 27.766 15.352V17.352C31.1029 17.352 33.6762 18.4518 35.5961 20.602L37.0879 19.27ZM27.766 15.352C23.9019 15.352 20.7201 16.6132 18.3287 19.1921L19.7953 20.5519C21.7559 18.4375 24.3768 17.352 27.766 17.352V15.352ZM18.3221 19.1993C15.9805 21.775 14.862 25.2168 14.862 29.408H16.862C16.862 25.5778 17.8768 22.6623 19.8019 20.5447L18.3221 19.1993ZM14.862 29.408C14.862 33.5606 15.9825 36.9965 18.3161 39.61L19.8079 38.278C17.8748 36.1129 16.862 33.1914 16.862 29.408H14.862ZM18.3287 39.6239C20.7201 42.2028 23.9019 43.464 27.766 43.464V41.464C24.3768 41.464 21.7559 40.3785 19.7953 38.2641L18.3287 39.6239ZM88.2745 20L87.5335 20.6715L87.539 20.6776L87.5446 20.6836L88.2745 20ZM92.0505 52V53H93.0505V52H92.0505ZM81.1705 52H80.1705V53H81.1705V52ZM79.3145 27.04L78.5842 27.7232L79.3145 27.04ZM69.3305 27.04L70.0608 27.7232L69.3305 27.04ZM67.4745 52V53H68.4745V52H67.4745ZM56.5305 52H55.5305V53H56.5305V52ZM56.5305 16.288V15.288H55.5305V16.288H56.5305ZM67.4745 16.288H68.4745V15.288H67.4745V16.288ZM67.4745 21.024H66.4745V24.1864L68.2927 21.5989L67.4745 21.024ZM71.9545 17.312L72.3852 18.2145L72.3935 18.2105L72.4017 18.2064L71.9545 17.312ZM78.2905 16.904C82.2316 16.904 85.2749 18.1793 87.5335 20.6715L89.0155 19.3285C86.3248 16.3594 82.7121 14.904 78.2905 14.904V16.904ZM87.5446 20.6836C89.843 23.1378 91.0505 26.5787 91.0505 31.136H93.0505C93.0505 26.2213 91.7406 22.2382 89.0044 19.3164L87.5446 20.6836ZM91.0505 31.136V52H93.0505V31.136H91.0505ZM92.0505 51H81.1705V53H92.0505V51ZM82.1705 52V32.608H80.1705V52H82.1705ZM82.1705 32.608C82.1705 30.0481 81.5049 27.9177 80.0448 26.3568L78.5842 27.7232C79.5988 28.8077 80.1705 30.3892 80.1705 32.608H82.1705ZM80.0448 26.3568C78.5886 24.8003 76.6432 24.056 74.3225 24.056V26.056C76.1832 26.056 77.5657 26.6344 78.5842 27.7232L80.0448 26.3568ZM74.3225 24.056C72.0018 24.056 70.0564 24.8003 68.6002 26.3568L70.0608 27.7232C71.0793 26.6344 72.4619 26.056 74.3225 26.056V24.056ZM68.6002 26.3568C67.1401 27.9177 66.4745 30.0481 66.4745 32.608H68.4745C68.4745 30.3892 69.0462 28.8077 70.0608 27.7232L68.6002 26.3568ZM66.4745 32.608V52H68.4745V32.608H66.4745ZM67.4745 51H56.5305V53H67.4745V51ZM57.5305 52V16.288H55.5305V52H57.5305ZM56.5305 17.288H67.4745V15.288H56.5305V17.288ZM66.4745 16.288V21.024H68.4745V16.288H66.4745ZM68.2927 21.5989C69.2955 20.1719 70.6506 19.0424 72.3852 18.2145L71.5238 16.4095C69.5038 17.3736 67.8722 18.7188 66.6563 20.4491L68.2927 21.5989ZM72.4017 18.2064C74.1245 17.345 76.0806 16.904 78.2905 16.904V14.904C75.8071 14.904 73.5391 15.4016 71.5073 16.4176L72.4017 18.2064ZM127.516 7.072H128.516V6.072H127.516V7.072ZM123.484 48.608L122.794 47.8838L122.788 47.8894L123.484 48.608ZM101.34 48.416L100.654 49.1445L101.34 48.416ZM97.0515 36.96V35.96H96.0515V36.96H97.0515ZM107.932 36.96H108.932V35.96H107.932V36.96ZM109.084 41.248L108.296 41.8643L108.303 41.8728L108.31 41.8812L109.084 41.248ZM115.484 41.376L114.722 40.7284L115.484 41.376ZM116.572 7.072V6.072H115.572V7.072H116.572ZM126.516 7.072V37.664H128.516V7.072H126.516ZM126.516 37.664C126.516 42.2061 125.232 45.5614 122.794 47.8839L124.173 49.3321C127.111 46.5346 128.516 42.5939 128.516 37.664H126.516ZM122.788 47.8894C120.37 50.2296 117.057 51.448 112.732 51.448V53.448C117.451 53.448 121.306 52.1064 124.179 49.3266L122.788 47.8894ZM112.732 51.448C108.194 51.448 104.661 50.1663 102.025 47.6875L100.654 49.1445C103.736 52.0417 107.797 53.448 112.732 53.448V51.448ZM102.025 47.6875C99.4166 45.2353 98.0515 41.7101 98.0515 36.96H96.0515C96.0515 42.1086 97.5451 46.2207 100.654 49.1445L102.025 47.6875ZM97.0515 37.96H107.932V35.96H97.0515V37.96ZM106.932 36.96C106.932 38.9528 107.336 40.6376 108.296 41.8643L109.871 40.6317C109.295 39.8957 108.932 38.7219 108.932 36.96H106.932ZM108.31 41.8812C109.305 43.0982 110.726 43.656 112.412 43.656V41.656C111.196 41.656 110.398 41.2752 109.857 40.6148L108.31 41.8812ZM112.412 43.656C113.969 43.656 115.295 43.1417 116.245 42.0236L114.722 40.7284C114.221 41.317 113.499 41.656 112.412 41.656V43.656ZM116.245 42.0236C117.181 40.9235 117.572 39.4186 117.572 37.664H115.572C115.572 39.152 115.237 40.1218 114.722 40.7284L116.245 42.0236ZM117.572 37.664V7.072H115.572V37.664H117.572ZM116.572 8.072H127.516V6.072H116.572V8.072ZM142.84 50.272L142.365 51.1525L142.371 51.1555L142.84 50.272ZM136.248 43.872L135.378 44.3667L135.384 44.3767L136.248 43.872ZM136.312 24.48L137.175 24.9847L137.178 24.979L136.312 24.48ZM142.968 18.016L143.436 18.8995L142.968 18.016ZM161.912 18.016L161.443 18.8995L161.912 18.016ZM168.568 24.48L167.701 24.979L167.704 24.9847L168.568 24.48ZM168.504 43.872L167.643 43.3633L167.64 43.3673L168.504 43.872ZM161.784 50.272L161.32 49.3856L161.315 49.3885L161.784 50.272ZM157.624 40.736L156.907 40.0389L156.901 40.0441L156.896 40.0494L157.624 40.736ZM157.688 27.552L156.95 28.2277L156.955 28.2332L156.96 28.2386L157.688 27.552ZM147.128 27.552L147.855 28.2381L147.865 28.2277L147.128 27.552ZM147.064 40.736L146.316 41.4004L146.321 41.4061L146.326 41.4117L147.064 40.736ZM152.312 51.512C148.96 51.512 145.966 50.7981 143.308 49.3885L142.371 51.1555C145.345 52.7326 148.666 53.512 152.312 53.512V51.512ZM143.314 49.3915C140.705 47.9871 138.641 45.9853 137.111 43.3673L135.384 44.3767C137.096 47.3053 139.427 49.5702 142.365 51.1525L143.314 49.3915ZM137.117 43.3773C135.637 40.7777 134.88 37.7111 134.88 34.144H132.88C132.88 38.0009 133.701 41.4196 135.378 44.3667L137.117 43.3773ZM134.88 34.144C134.88 30.6264 135.655 27.5842 137.175 24.9847L135.448 23.9753C133.725 26.9225 132.88 30.3229 132.88 34.144H134.88ZM137.178 24.979C138.708 22.3227 140.79 20.3028 143.436 18.8995L142.499 17.1325C139.513 18.7158 137.158 21.0053 135.445 23.981L137.178 24.979ZM143.436 18.8995C146.094 17.4899 149.088 16.776 152.44 16.776V14.776C148.794 14.776 145.473 15.5554 142.499 17.1325L143.436 18.8995ZM152.44 16.776C155.791 16.776 158.785 17.4899 161.443 18.8995L162.38 17.1325C159.406 15.5554 156.085 14.776 152.44 14.776V16.776ZM161.443 18.8995C164.089 20.3028 166.172 22.3227 167.701 24.979L169.434 23.981C167.721 21.0053 165.366 18.7158 162.38 17.1325L161.443 18.8995ZM167.704 24.9847C169.224 27.5842 170 30.6264 170 34.144H172C172 30.3229 171.154 26.9225 169.431 23.9753L167.704 24.9847ZM170 34.144C170 37.6567 169.205 40.7195 167.643 43.3633L169.364 44.3807C171.13 41.3925 172 37.97 172 34.144H170ZM167.64 43.3673C166.114 45.9776 164.013 47.979 161.32 49.3857L162.247 51.1583C165.271 49.5783 167.65 47.313 169.367 44.3767L167.64 43.3673ZM161.315 49.3885C158.657 50.7981 155.663 51.512 152.312 51.512V53.512C155.957 53.512 159.278 52.7326 162.252 51.1555L161.315 49.3885ZM152.312 44.04C154.681 44.04 156.713 43.1562 158.351 41.4226L156.896 40.0494C155.632 41.3878 154.124 42.04 152.312 42.04V44.04ZM158.34 41.4331C160.069 39.6548 160.864 37.1735 160.864 34.144H158.864C158.864 36.8319 158.164 38.7452 156.907 40.0389L158.34 41.4331ZM160.864 34.144C160.864 31.1218 160.095 28.6445 158.415 26.8654L156.96 28.2386C158.182 29.5315 158.864 31.4488 158.864 34.144H160.864ZM158.425 26.8763C156.827 25.1329 154.809 24.248 152.44 24.248V26.248C154.251 26.248 155.732 26.8991 156.95 28.2277L158.425 26.8763ZM152.44 24.248C150.033 24.248 147.993 25.1281 146.39 26.8763L147.865 28.2277C149.078 26.9039 150.579 26.248 152.44 26.248V24.248ZM146.4 26.866C144.756 28.6097 144.016 31.0934 144.016 34.144H146.016C146.016 31.392 146.683 29.481 147.855 28.238L146.4 26.866ZM144.016 34.144C144.016 37.1518 144.734 39.6206 146.316 41.4004L147.811 40.0716C146.662 38.7794 146.016 36.8535 146.016 34.144H144.016ZM146.326 41.4117C147.924 43.1551 149.942 44.04 152.312 44.04V42.04C150.5 42.04 149.019 41.3889 147.801 40.0603L146.326 41.4117ZM187.45 21.344H186.45V24.877L188.301 21.8681L187.45 21.344ZM191.866 17.312L191.395 16.4296V16.4296L191.866 17.312ZM206.458 18.016L205.928 18.864L206.458 18.016ZM212.09 24.416L211.192 24.8577L211.198 24.8687L212.09 24.416ZM212.09 43.808L211.195 43.3608L211.192 43.3663L212.09 43.808ZM206.458 50.272L206.988 51.1201L206.998 51.1132L206.458 50.272ZM191.866 51.04L191.387 51.9179L191.394 51.9221L191.402 51.9262L191.866 51.04ZM187.45 47.008L188.291 46.4683L186.45 43.595V47.008H187.45ZM187.45 52V53H188.45V52H187.45ZM176.506 52H175.506V53H176.506V52ZM176.506 4.64V3.64H175.506V4.64H176.506ZM187.45 4.64H188.45V3.64H187.45V4.64ZM200.762 27.68L200.035 28.3672L200.045 28.3773L200.054 28.3871L200.762 27.68ZM189.626 27.68L188.909 26.9826L188.899 26.9928L189.626 27.68ZM189.626 40.608L188.899 41.2953L188.909 41.3054L189.626 40.608ZM200.762 40.608L201.478 41.3054L201.487 41.2957L200.762 40.608ZM188.301 21.8681C189.222 20.3719 190.554 19.1446 192.336 18.1943L191.395 16.4296C189.337 17.5274 187.725 18.9881 186.598 20.8199L188.301 21.8681ZM192.336 18.1944C194.092 17.2576 196.124 16.776 198.458 16.776V14.776C195.841 14.776 193.479 15.3184 191.395 16.4296L192.336 18.1944ZM198.458 16.776C201.223 16.776 203.704 17.4746 205.928 18.864L206.988 17.168C204.432 15.5708 201.58 14.776 198.458 14.776V16.776ZM205.928 18.864C208.144 20.2492 209.901 22.2345 211.192 24.8577L212.987 23.9743C211.547 21.0508 209.55 18.7694 206.988 17.168L205.928 18.864ZM211.198 24.8687C212.523 27.4786 213.202 30.5398 213.202 34.08H215.202C215.202 30.2815 214.472 26.9 212.981 23.9633L211.198 24.8687ZM213.202 34.08C213.202 37.6197 212.523 40.7049 211.195 43.3608L212.984 44.2552C214.472 41.2791 215.202 37.8789 215.202 34.08H213.202ZM211.192 43.3663C209.9 45.9915 208.14 48.0017 205.917 49.4308L206.998 51.1132C209.554 49.4703 211.548 47.1712 212.987 44.2497L211.192 43.3663ZM205.928 49.424C203.704 50.8134 201.223 51.512 198.458 51.512V53.512C201.58 53.512 204.432 52.7172 206.988 51.12L205.928 49.424ZM198.458 51.512C196.071 51.512 194.039 51.0475 192.329 50.1538L191.402 51.9262C193.447 52.9952 195.809 53.512 198.458 53.512V51.512ZM192.344 50.1621C190.602 49.2118 189.26 47.9794 188.291 46.4683L186.608 47.5477C187.772 49.3646 189.374 50.8202 191.387 51.9179L192.344 50.1621ZM186.45 47.008V52H188.45V47.008H186.45ZM187.45 51H176.506V53H187.45V51ZM177.506 52V4.64H175.506V52H177.506ZM176.506 5.64H187.45V3.64H176.506V5.64ZM186.45 4.64V21.344H188.45V4.64H186.45ZM204.066 34.08C204.066 31.156 203.238 28.7418 201.469 26.9729L200.054 28.3871C201.358 29.6902 202.066 31.5427 202.066 34.08H204.066ZM201.488 26.9928C199.801 25.2098 197.68 24.312 195.194 24.312V26.312C197.144 26.312 198.735 26.9929 200.035 28.3672L201.488 26.9928ZM195.194 24.312C192.744 24.312 190.63 25.2132 188.909 26.9826L190.342 28.3774C191.693 26.9895 193.291 26.312 195.194 26.312V24.312ZM188.899 26.9928C187.188 28.8016 186.386 31.2263 186.386 34.144H188.386C188.386 31.6004 189.076 29.7157 190.352 28.3672L188.899 26.9928ZM186.386 34.144C186.386 37.0617 187.188 39.4864 188.899 41.2952L190.352 39.9208C189.076 38.5723 188.386 36.6876 188.386 34.144H186.386ZM188.909 41.3054C190.63 43.0748 192.744 43.976 195.194 43.976V41.976C193.291 41.976 191.693 41.2985 190.342 39.9106L188.909 41.3054ZM195.194 43.976C197.643 43.976 199.757 43.0748 201.478 41.3054L200.045 39.9106C198.694 41.2985 197.096 41.976 195.194 41.976V43.976ZM201.487 41.2957C203.237 39.4492 204.066 37.0064 204.066 34.08H202.066C202.066 36.6149 201.358 38.5241 200.036 39.9203L201.487 41.2957ZM220.027 50.848L219.333 51.5678L219.346 51.5805L219.359 51.5926L220.027 50.848ZM220.027 42.336L219.346 41.6041L219.339 41.6101L219.333 41.6162L220.027 42.336ZM229.371 42.336L228.677 43.0558L228.683 43.0619L228.69 43.0679L229.371 42.336ZM229.371 50.848L230.051 51.5808L230.052 51.5799L229.371 50.848ZM224.763 51.512C223.049 51.512 221.72 51.023 220.695 50.1034L219.359 51.5926C220.808 52.8917 222.637 53.512 224.763 53.512V51.512ZM220.721 50.1282C219.723 49.1652 219.235 48.0173 219.235 46.624H217.235C217.235 48.5587 217.942 50.2268 219.333 51.5678L220.721 50.1282ZM219.235 46.624C219.235 45.1802 219.728 44.0134 220.721 43.0558L219.333 41.6162C217.937 42.9626 217.235 44.6545 217.235 46.624H219.235ZM220.708 43.0679C221.735 42.1118 223.059 41.608 224.763 41.608V39.608C222.627 39.608 220.793 40.2562 219.346 41.6041L220.708 43.0679ZM224.763 41.608C226.418 41.608 227.693 42.1076 228.677 43.0558L230.065 41.6162C228.659 40.2604 226.862 39.608 224.763 39.608V41.608ZM228.69 43.0679C229.722 44.0287 230.227 45.1919 230.227 46.624H232.227C232.227 44.6427 231.495 42.9473 230.052 41.6041L228.69 43.0679ZM230.227 46.624C230.227 48.0054 229.727 49.1498 228.69 50.1161L230.052 51.5799C231.489 50.2422 232.227 48.5706 232.227 46.624H230.227ZM228.691 50.1152C227.709 51.0268 226.429 51.512 224.763 51.512V53.512C226.852 53.512 228.644 52.8879 230.051 51.5808L228.691 50.1152ZM238.173 10.912L237.479 11.6318L237.492 11.6444L237.506 11.6566L238.173 10.912ZM238.173 2.464L238.854 3.19679L238.855 3.19589L238.173 2.464ZM247.518 2.464L246.823 3.18384L246.836 3.19645L246.85 3.20857L247.518 2.464ZM247.518 10.912L248.198 11.6448L248.199 11.6439L247.518 10.912ZM248.35 16.288H249.35V15.288H248.35V16.288ZM248.35 52V53H249.35V52H248.35ZM237.406 52H236.406V53H237.406V52ZM237.406 16.288V15.288H236.406V16.288H237.406ZM242.91 11.576C241.195 11.576 239.867 11.087 238.841 10.1674L237.506 11.6566C238.955 12.9557 240.784 13.576 242.91 13.576V11.576ZM238.868 10.1922C237.869 9.22919 237.382 8.08129 237.382 6.688H235.382C235.382 8.62271 236.089 10.2908 237.479 11.6318L238.868 10.1922ZM237.382 6.688C237.382 5.24472 237.874 4.10715 238.854 3.19679L237.493 1.7312C236.084 3.03951 235.382 4.71795 235.382 6.688H237.382ZM238.855 3.19589C239.882 2.23982 241.205 1.736 242.91 1.736V-0.264004C240.774 -0.264004 238.94 0.384169 237.492 1.7321L238.855 3.19589ZM242.91 1.736C244.565 1.736 245.84 2.23559 246.823 3.18384L248.212 1.74415C246.806 0.388401 245.009 -0.264004 242.91 -0.264004V1.736ZM246.85 3.20857C247.869 4.12246 248.374 5.25674 248.374 6.688H250.374C250.374 4.70592 249.64 3.0242 248.185 1.71943L246.85 3.20857ZM248.374 6.688C248.374 8.06939 247.874 9.21384 246.836 10.1801L248.199 11.6439C249.636 10.3062 250.374 8.63461 250.374 6.688H248.374ZM246.837 10.1792C245.855 11.0908 244.575 11.576 242.91 11.576V13.576C244.998 13.576 246.79 12.9519 248.198 11.6448L246.837 10.1792ZM247.35 16.288V52H249.35V16.288H247.35ZM248.35 51H237.406V53H248.35V51ZM238.406 52V16.288H236.406V52H238.406ZM237.406 17.288H248.35V15.288H237.406V17.288ZM255.853 24.416L254.961 23.9633L254.955 23.9743L255.853 24.416ZM261.548 18.016L262.078 18.864L261.548 18.016ZM275.948 17.248L275.493 18.1385L275.501 18.1424L275.948 17.248ZM280.556 21.216L279.724 21.7707L281.556 24.5188V21.216H280.556ZM280.556 4.64V3.64H279.556V4.64H280.556ZM291.5 4.64H292.5V3.64H291.5V4.64ZM291.5 52V53H292.5V52H291.5ZM280.556 52H279.556V53H280.556V52ZM280.556 46.88H281.556V43.2697L279.699 46.3655L280.556 46.88ZM276.141 50.976L275.67 50.0936L275.662 50.0981L276.141 50.976ZM261.548 50.272L261.008 51.1132L261.018 51.12L261.548 50.272ZM255.853 43.808L254.953 44.2443L254.957 44.2525L254.961 44.2607L255.853 43.808ZM278.253 27.68L277.526 28.3673L277.536 28.3774L278.253 27.68ZM267.181 27.68L266.464 26.9826L266.464 26.9829L267.181 27.68ZM267.181 40.608L266.445 41.2855L266.454 41.2955L266.464 41.3054L267.181 40.608ZM278.253 40.608L277.536 39.9106L277.526 39.9208L278.253 40.608ZM254.805 34.08C254.805 30.5354 255.464 27.4702 256.75 24.8577L254.955 23.9743C253.511 26.9085 252.805 30.2859 252.805 34.08H254.805ZM256.744 24.8687C258.079 22.2402 259.859 20.2511 262.078 18.864L261.018 17.168C258.459 18.7676 256.442 21.0451 254.961 23.9633L256.744 24.8687ZM262.078 18.864C264.302 17.4746 266.783 16.776 269.548 16.776V14.776C266.426 14.776 263.574 15.5708 261.018 17.168L262.078 18.864ZM269.548 16.776C271.751 16.776 273.726 17.2353 275.493 18.1384L276.404 16.3576C274.331 15.298 272.039 14.776 269.548 14.776V16.776ZM275.501 18.1424C277.324 19.0537 278.721 20.2653 279.724 21.7707L281.389 20.6613C280.173 18.8387 278.499 17.405 276.396 16.3536L275.501 18.1424ZM281.556 21.216V4.64H279.556V21.216H281.556ZM280.556 5.64H291.5V3.64H280.556V5.64ZM290.5 4.64V52H292.5V4.64H290.5ZM291.5 51H280.556V53H291.5V51ZM281.556 52V46.88H279.556V52H281.556ZM279.699 46.3655C278.777 47.9024 277.445 49.1467 275.67 50.0936L276.611 51.8584C278.676 50.7573 280.288 49.2709 281.414 47.3945L279.699 46.3655ZM275.662 50.0981C273.955 51.0289 271.928 51.512 269.548 51.512V53.512C272.203 53.512 274.571 52.9711 276.619 51.8539L275.662 50.0981ZM269.548 51.512C266.783 51.512 264.302 50.8134 262.078 49.424L261.018 51.12C263.574 52.7172 266.426 53.512 269.548 53.512V51.512ZM262.089 49.4308C259.863 47.9998 258.08 45.9858 256.744 43.3553L254.961 44.2607C256.441 47.1769 258.455 49.4722 261.008 51.1132L262.089 49.4308ZM256.752 43.3717C255.463 40.7133 254.805 37.6241 254.805 34.08H252.805C252.805 37.8745 253.511 41.2707 254.953 44.2443L256.752 43.3717ZM281.556 34.144C281.556 31.2187 280.728 28.7904 278.969 26.9826L277.536 28.3774C278.849 29.7269 279.556 31.6079 279.556 34.144H281.556ZM278.979 26.9928C277.296 25.2142 275.199 24.312 272.749 24.312V26.312C274.65 26.312 276.222 26.9885 277.526 28.3672L278.979 26.9928ZM272.749 24.312C270.299 24.312 268.185 25.2132 266.464 26.9826L267.897 28.3774C269.248 26.9895 270.846 26.312 272.749 26.312V24.312ZM266.464 26.9829C264.743 28.7531 263.94 31.1637 263.94 34.08H265.94C265.94 31.535 266.632 29.6789 267.897 28.3771L266.464 26.9829ZM263.94 34.08C263.94 36.999 264.743 39.438 266.445 41.2855L267.916 39.9305C266.631 38.5353 265.94 36.6224 265.94 34.08H263.94ZM266.464 41.3054C268.185 43.0748 270.299 43.976 272.749 43.976V41.976C270.846 41.976 269.248 41.2985 267.897 39.9106L266.464 41.3054ZM272.749 43.976C275.199 43.976 277.296 43.0738 278.979 41.2952L277.526 39.9208C276.222 41.2995 274.65 41.976 272.749 41.976V43.976ZM278.969 41.3054C280.728 39.4976 281.556 37.0693 281.556 34.144H279.556C279.556 36.6801 278.849 38.5611 277.536 39.9106L278.969 41.3054Z" fill="white"/>
</g>
<defs>
<filter id="filter0_d_378_157" x="0.662109" y="0.735996" width="294.838" height="59.776" filterUnits="userSpaceOnUse" color-interpolation-filters="sRGB">
<feFlood flood-opacity="0" result="BackgroundImageFix"/>
<feColorMatrix in="SourceAlpha" type="matrix" values="0 0 0 0 0 0 0 0 0 0 0 0 0 0 0 0 0 0 127 0" result="hardAlpha"/>
<feOffset dy="4"/>
<feGaussianBlur stdDeviation="2"/>
<feComposite in2="hardAlpha" operator="out"/>
<feColorMatrix type="matrix" values="0 0 0 0 0 0 0 0 0 0 0 0 0 0 0 0 0 0 0.25 0"/>
<feBlend mode="normal" in2="BackgroundImageFix" result="effect1_dropShadow_378_157"/>
<feBlend mode="normal" in="SourceGraphic" in2="effect1_dropShadow_378_157" result="shape"/>
</filter>
</defs>
</svg>
