<svg width="151" height="39" viewBox="0 0 151 39" fill="none" xmlns="http://www.w3.org/2000/svg">
<path d="M13.3805 29.252C11.0045 29.252 8.82049 28.7 6.82849 27.596C4.86049 26.492 3.28849 24.956 2.11249 22.988C0.960487 20.996 0.384487 18.764 0.384487 16.292C0.384487 13.82 0.960487 11.6 2.11249 9.632C3.28849 7.664 4.86049 6.128 6.82849 5.024C8.82049 3.92 11.0045 3.368 13.3805 3.368C15.7565 3.368 17.9285 3.92 19.8965 5.024C21.8885 6.128 23.4485 7.664 24.5765 9.632C25.7285 11.6 26.3045 13.82 26.3045 16.292C26.3045 18.764 25.7285 20.996 24.5765 22.988C23.4245 24.956 21.8645 26.492 19.8965 27.596C17.9285 28.7 15.7565 29.252 13.3805 29.252ZM13.3805 23.636C15.3965 23.636 17.0045 22.964 18.2045 21.62C19.4285 20.276 20.0405 18.5 20.0405 16.292C20.0405 14.06 19.4285 12.284 18.2045 10.964C17.0045 9.62 15.3965 8.948 13.3805 8.948C11.3405 8.948 9.70849 9.608 8.48449 10.928C7.28449 12.248 6.68449 14.036 6.68449 16.292C6.68449 18.524 7.28449 20.312 8.48449 21.656C9.70849 22.976 11.3405 23.636 13.3805 23.636ZM41.6693 8.696C44.0213 8.696 45.8933 9.464 47.2853 11C48.7013 12.512 49.4093 14.6 49.4093 17.264V29H43.2893V18.092C43.2893 16.748 42.9413 15.704 42.2453 14.96C41.5493 14.216 40.6133 13.844 39.4373 13.844C38.2613 13.844 37.3253 14.216 36.6293 14.96C35.9333 15.704 35.5853 16.748 35.5853 18.092V29H29.4293V8.912H35.5853V11.576C36.2093 10.688 37.0493 9.992 38.1053 9.488C39.1613 8.96 40.3493 8.696 41.6693 8.696ZM56.4471 6.824C55.3671 6.824 54.4791 6.512 53.7831 5.888C53.1111 5.24 52.7751 4.448 52.7751 3.512C52.7751 2.552 53.1111 1.76 53.7831 1.136C54.4791 0.487998 55.3671 0.163998 56.4471 0.163998C57.5031 0.163998 58.3671 0.487998 59.0391 1.136C59.7351 1.76 60.0831 2.552 60.0831 3.512C60.0831 4.448 59.7351 5.24 59.0391 5.888C58.3671 6.512 57.5031 6.824 56.4471 6.824ZM59.5431 31.592C59.5431 34.064 58.9191 35.84 57.6711 36.92C56.4231 38.024 54.6831 38.576 52.4511 38.576H50.0391V33.356H51.5151C52.1871 33.356 52.6671 33.224 52.9551 32.96C53.2431 32.696 53.3871 32.264 53.3871 31.664V8.912H59.5431V31.592ZM72.8131 29.288C70.8451 29.288 69.0691 28.868 67.4851 28.028C65.9251 27.188 64.6891 25.988 63.7771 24.428C62.8891 22.868 62.4451 21.044 62.4451 18.956C62.4451 16.892 62.9011 15.08 63.8131 13.52C64.7251 11.936 65.9731 10.724 67.5571 9.884C69.1411 9.044 70.9171 8.624 72.8851 8.624C74.8531 8.624 76.6291 9.044 78.2131 9.884C79.7971 10.724 81.0451 11.936 81.9571 13.52C82.8691 15.08 83.3251 16.892 83.3251 18.956C83.3251 21.02 82.8571 22.844 81.9211 24.428C81.0091 25.988 79.7491 27.188 78.1411 28.028C76.5571 28.868 74.7811 29.288 72.8131 29.288ZM72.8131 23.96C73.9891 23.96 74.9851 23.528 75.8011 22.664C76.6411 21.8 77.0611 20.564 77.0611 18.956C77.0611 17.348 76.6531 16.112 75.8371 15.248C75.0451 14.384 74.0611 13.952 72.8851 13.952C71.6851 13.952 70.6891 14.384 69.8971 15.248C69.1051 16.088 68.7091 17.324 68.7091 18.956C68.7091 20.564 69.0931 21.8 69.8611 22.664C70.6531 23.528 71.6371 23.96 72.8131 23.96ZM92.447 11.756C93.023 10.82 93.851 10.064 94.931 9.488C96.011 8.912 97.247 8.624 98.639 8.624C100.295 8.624 101.795 9.044 103.139 9.884C104.483 10.724 105.539 11.924 106.307 13.484C107.099 15.044 107.495 16.856 107.495 18.92C107.495 20.984 107.099 22.808 106.307 24.392C105.539 25.952 104.483 27.164 103.139 28.028C101.795 28.868 100.295 29.288 98.639 29.288C97.223 29.288 95.987 29.012 94.931 28.46C93.875 27.884 93.047 27.128 92.447 26.192V29H86.291V2.36H92.447V11.756ZM101.231 18.92C101.231 17.384 100.799 16.184 99.935 15.32C99.095 14.432 98.051 13.988 96.803 13.988C95.579 13.988 94.535 14.432 93.671 15.32C92.831 16.208 92.411 17.42 92.411 18.956C92.411 20.492 92.831 21.704 93.671 22.592C94.535 23.48 95.579 23.924 96.803 23.924C98.027 23.924 99.071 23.48 99.935 22.592C100.799 21.68 101.231 20.456 101.231 18.92ZM113.305 29.288C112.225 29.288 111.337 28.976 110.641 28.352C109.969 27.704 109.633 26.912 109.633 25.976C109.633 25.016 109.969 24.212 110.641 23.564C111.337 22.916 112.225 22.592 113.305 22.592C114.361 22.592 115.225 22.916 115.897 23.564C116.593 24.212 116.941 25.016 116.941 25.976C116.941 26.912 116.593 27.704 115.897 28.352C115.225 28.976 114.361 29.288 113.305 29.288ZM123.381 6.824C122.301 6.824 121.413 6.512 120.717 5.888C120.045 5.24 119.709 4.448 119.709 3.512C119.709 2.552 120.045 1.76 120.717 1.136C121.413 0.487998 122.301 0.163998 123.381 0.163998C124.437 0.163998 125.301 0.487998 125.973 1.136C126.669 1.76 127.017 2.552 127.017 3.512C127.017 4.448 126.669 5.24 125.973 5.888C125.301 6.512 124.437 6.824 123.381 6.824ZM126.441 8.912V29H120.285V8.912H126.441ZM129.378 18.92C129.378 16.856 129.762 15.044 130.53 13.484C131.322 11.924 132.39 10.724 133.734 9.884C135.078 9.044 136.578 8.624 138.234 8.624C139.554 8.624 140.754 8.9 141.834 9.452C142.938 10.004 143.802 10.748 144.426 11.684V2.36H150.582V29H144.426V26.12C143.85 27.08 143.022 27.848 141.942 28.424C140.886 29 139.65 29.288 138.234 29.288C136.578 29.288 135.078 28.868 133.734 28.028C132.39 27.164 131.322 25.952 130.53 24.392C129.762 22.808 129.378 20.984 129.378 18.92ZM144.426 18.956C144.426 17.42 143.994 16.208 143.13 15.32C142.29 14.432 141.258 13.988 140.034 13.988C138.81 13.988 137.766 14.432 136.902 15.32C136.062 16.184 135.642 17.384 135.642 18.92C135.642 20.456 136.062 21.68 136.902 22.592C137.766 23.48 138.81 23.924 140.034 23.924C141.258 23.924 142.29 23.48 143.13 22.592C143.994 21.704 144.426 20.492 144.426 18.956Z" fill="#430AB4"/>
</svg>
